SerifasText-350.ufo
<glyph name="C" format="1">
  <advance width="708"/>
  <unicode hex="0043"/>
  <outline>
    <contour>
      <point x="658" y="94" type="line"/>
      <point x="597" y="19"/>
      <point x="515" y="-18"/>
      <point x="381" y="-18" type="curve" smooth="yes"/>
      <point x="159" y="-18"/>
      <point x="61" y="107"/>
      <point x="61" y="381" type="curve" smooth="yes"/>
      <point x="61" y="649"/>
      <point x="161" y="760"/>
      <point x="400" y="760" type="curve" smooth="yes"/>
      <point x="502" y="760"/>
      <point x="591" y="738"/>
      <point x="644" y="705" type="curve"/>
      <point x="618" y="466" type="line"/>
      <point x="577" y="466" type="line"/>
      <point x="540" y="704" type="line"/>
      <point x="605" y="626" type="line"/>
      <point x="548" y="661"/>
      <point x="474" y="681"/>
      <point x="391" y="681" type="curve" smooth="yes"/>
      <point x="256" y="681"/>
      <point x="153" y="593"/>
      <point x="151" y="431" type="curve" smooth="yes"/>
      <point x="149" y="164"/>
      <point x="215" y="61"/>
      <point x="381" y="61" type="curve" smooth="yes"/>
      <point x="492" y="61"/>
      <point x="553" y="101"/>
      <point x="598" y="159" type="curve"/>
    </contour>
  </outline>
</glyph>
<glyph name="D" format="1">
  <advance width="754"/>
  <unicode hex="0044"/>
  <outline>
    <contour>
      <point x="317" y="-1" type="line" smooth="yes"/>
      <point x="591" y="-2"/>
      <point x="697" y="104"/>
      <point x="697" y="370" type="curve" smooth="yes"/>
      <point x="697" y="638"/>
      <point x="595" y="740"/>
      <point x="327" y="740" type="curve" smooth="yes"/>
      <point x="54" y="740" type="line"/>
      <point x="54" y="665" type="line"/>
      <point x="191" y="665" type="line"/>
      <point x="128" y="701" type="line"/>
      <point x="128" y="61" type="line"/>
      <point x="162" y="86" type="line"/>
      <point x="54" y="60" type="line"/>
      <point x="54" y="0" type="line"/>
    </contour>
    <contour>
      <point x="251" y="666" type="line" smooth="yes"/>
      <point x="502" y="670"/>
      <point x="610" y="631"/>
      <point x="610" y="352" type="curve" smooth="yes"/>
      <point x="610" y="105"/>
      <point x="502" y="69"/>
      <point x="250" y="79" type="curve" smooth="yes"/>
      <point x="171" y="81" type="line"/>
      <point x="205" y="50" type="line"/>
      <point x="205" y="709" type="line"/>
      <point x="182" y="665" type="line"/>
    </contour>
  </outline>
</glyph>
<glyph name="E" format="1">
  <advance width="668"/>
  <unicode hex="0045"/>
  <outline>
    <contour>
      <point x="161" y="328" type="line"/>
      <point x="161" y="419" type="line"/>
      <point x="468" y="398" type="line"/>
      <point x="468" y="341" type="line"/>
    </contour>
    <contour>
      <point x="515" y="44" type="line"/>
      <point x="565" y="235" type="line"/>
      <point x="609" y="235" type="line"/>
      <point x="609" y="0" type="line"/>
      <point x="50" y="0" type="line"/>
      <point x="50" y="56" type="line"/>
      <point x="153" y="84" type="line"/>
      <point x="124" y="46" type="line"/>
      <point x="124" y="688" type="line"/>
      <point x="154" y="658" type="line"/>
      <point x="50" y="658" type="line"/>
      <point x="50" y="740" type="line"/>
      <point x="595" y="740" type="line"/>
      <point x="587" y="516" type="line"/>
      <point x="540" y="516" type="line"/>
      <point x="513" y="696" type="line"/>
      <point x="546" y="664" type="line"/>
      <point x="169" y="664" type="line"/>
      <point x="207" y="701" type="line"/>
      <point x="207" y="48" type="line"/>
      <point x="170" y="74" type="line"/>
      <point x="547" y="74" type="line"/>
    </contour>
  </outline>
</glyph>
<glyph name="F" format="1">
  <advance width="639"/>
  <unicode hex="0046"/>
  <outline>
    <contour>
      <point x="161" y="315" type="line"/>
      <point x="161" y="406" type="line"/>
      <point x="477" y="385" type="line"/>
      <point x="477" y="328" type="line"/>
    </contour>
    <contour>
      <point x="393" y="0" type="line"/>
      <point x="50" y="0" type="line"/>
      <point x="50" y="67" type="line"/>
      <point x="153" y="95" type="line"/>
      <point x="124" y="57" type="line"/>
      <point x="124" y="688" type="line"/>
      <point x="154" y="658" type="line"/>
      <point x="50" y="658" type="line"/>
      <point x="50" y="740" type="line"/>
      <point x="604" y="740" type="line"/>
      <point x="596" y="506" type="line"/>
      <point x="545" y="506" type="line"/>
      <point x="514" y="696" type="line"/>
      <point x="551" y="664" type="line"/>
      <point x="169" y="664" type="line"/>
      <point x="207" y="701" type="line"/>
      <point x="207" y="47" type="line"/>
      <point x="174" y="95" type="line"/>
      <point x="393" y="67" type="line"/>
    </contour>
  </outline>
</glyph>
<glyph name="G" format="1">
  <advance width="758"/>
  <unicode hex="0047"/>
  <outline>
    <contour>
      <point x="591" y="83" type="line"/>
      <point x="591" y="315" type="line"/>
      <point x="620" y="274" type="line"/>
      <point x="423" y="282" type="line"/>
      <point x="423" y="347" type="line"/>
      <point x="676" y="357" type="line"/>
      <point x="676" y="148" type="line"/>
      <point x="637" y="48"/>
      <point x="546" y="-18"/>
      <point x="384" y="-18" type="curve" smooth="yes"/>
      <point x="161" y="-18"/>
      <point x="64" y="107"/>
      <point x="64" y="381" type="curve" smooth="yes"/>
      <point x="64" y="651"/>
      <point x="163" y="760"/>
      <point x="403" y="760" type="curve"/>
      <point x="505" y="760"/>
      <point x="591" y="738"/>
      <point x="644" y="705" type="curve"/>
      <point x="618" y="505" type="line"/>
      <point x="578" y="505" type="line"/>
      <point x="528" y="700" type="line"/>
      <point x="581" y="624" type="line"/>
      <point x="526" y="666"/>
      <point x="473" y="680"/>
      <point x="392" y="680" type="curve" smooth="yes"/>
      <point x="244" y="680"/>
      <point x="157" y="585"/>
      <point x="155" y="427" type="curve" smooth="yes"/>
      <point x="151" y="140"/>
      <point x="244" y="58"/>
      <point x="384" y="58" type="curve" smooth="yes"/>
      <point x="479" y="58"/>
      <point x="561" y="101"/>
      <point x="599" y="177" type="curve"/>
    </contour>
  </outline>
</glyph>
<glyph name="H" format="1">
  <advance width="823"/>
  <unicode hex="0048"/>
  <outline>
    <contour>
      <point x="177" y="343" type="line"/>
      <point x="177" y="416" type="line"/>
      <point x="644" y="416" type="line"/>
      <point x="644" y="343" type="line"/>
    </contour>
    <contour>
      <point x="207" y="702" type="line"/>
      <point x="207" y="53" type="line"/>
      <point x="157" y="82" type="line"/>
      <point x="283" y="82" type="line"/>
      <point x="283" y="0" type="line"/>
      <point x="50" y="0" type="line"/>
      <point x="50" y="60" type="line"/>
      <point x="158" y="89" type="line"/>
      <point x="124" y="61" type="line"/>
      <point x="124" y="694" type="line"/>
      <point x="187" y="658" type="line"/>
      <point x="50" y="658" type="line"/>
      <point x="50" y="740" type="line"/>
      <point x="283" y="740" type="line"/>
      <point x="283" y="680" type="line"/>
      <point x="180" y="651" type="line"/>
    </contour>
    <contour>
      <point x="699" y="697" type="line"/>
      <point x="699" y="49" type="line"/>
      <point x="636" y="82" type="line"/>
      <point x="773" y="82" type="line"/>
      <point x="773" y="0" type="line"/>
      <point x="540" y="0" type="line"/>
      <point x="540" y="60" type="line"/>
      <point x="643" y="89" type="line"/>
      <point x="616" y="61" type="line"/>
      <point x="616" y="690" type="line"/>
      <point x="666" y="658" type="line"/>
      <point x="540" y="658" type="line"/>
      <point x="540" y="740" type="line"/>
      <point x="773" y="740" type="line"/>
      <point x="773" y="680" type="line"/>
      <point x="665" y="651" type="line"/>
    </contour>
  </outline>
</glyph>
<glyph name="I" format="1">
  <advance width="424"/>
  <unicode hex="0049"/>
  <outline>
    <contour>
      <point x="252" y="31" type="line"/>
      <point x="216" y="82" type="line"/>
      <point x="359" y="82" type="line"/>
      <point x="359" y="0" type="line"/>
      <point x="65" y="0" type="line"/>
      <point x="65" y="60" type="line"/>
      <point x="196" y="89" type="line"/>
      <point x="173" y="43" type="line"/>
      <point x="173" y="690" type="line"/>
      <point x="201" y="658" type="line"/>
      <point x="65" y="658" type="line"/>
      <point x="65" y="740" type="line"/>
      <point x="359" y="740" type="line"/>
      <point x="359" y="680" type="line"/>
      <point x="228" y="651" type="line"/>
      <point x="252" y="697" type="line"/>
    </contour>
  </outline>
</glyph>
<glyph name="L" format="1">
  <advance width="658"/>
  <unicode hex="004C"/>
  <outline>
    <contour>
      <point x="171" y="76" type="line"/>
      <point x="573" y="76" type="line"/>
      <point x="508" y="39" type="line"/>
      <point x="562" y="288" type="line"/>
      <point x="607" y="288" type="line"/>
      <point x="607" y="2" type="line"/>
      <point x="54" y="0" type="line"/>
      <point x="54" y="52" type="line"/>
      <point x="162" y="81" type="line"/>
      <point x="128" y="53" type="line"/>
      <point x="128" y="694" type="line"/>
      <point x="191" y="658" type="line"/>
      <point x="54" y="658" type="line"/>
      <point x="54" y="740" type="line"/>
      <point x="413" y="740" type="line"/>
      <point x="415" y="677" type="line"/>
      <point x="185" y="652" type="line"/>
      <point x="211" y="702" type="line"/>
      <point x="211" y="45" type="line"/>
    </contour>
  </outline>
</glyph>
<glyph name="N" format="1">
  <advance width="823"/>
  <unicode hex="004E"/>
  <outline>
    <contour>
      <point x="602" y="-1" type="line"/>
      <point x="190" y="663" type="line"/>
      <point x="200" y="691" type="line"/>
      <point x="200" y="53" type="line"/>
      <point x="165" y="82" type="line"/>
      <point x="319" y="82" type="line"/>
      <point x="319" y="0" type="line"/>
      <point x="50" y="0" type="line"/>
      <point x="50" y="60" type="line"/>
      <point x="158" y="89" type="line"/>
      <point x="124" y="61" type="line"/>
      <point x="124" y="694" type="line"/>
      <point x="180" y="658" type="line"/>
      <point x="50" y="658" type="line"/>
      <point x="50" y="740" type="line"/>
      <point x="247" y="740" type="line"/>
      <point x="627" y="127" type="line"/>
      <point x="618" y="125" type="line"/>
      <point x="617" y="690" type="line"/>
      <point x="645" y="658" type="line"/>
      <point x="534" y="658" type="line"/>
      <point x="534" y="740" type="line"/>
      <point x="803" y="740" type="line"/>
      <point x="803" y="680" type="line"/>
      <point x="654" y="651" type="line"/>
      <point x="688" y="697" type="line"/>
      <point x="688" y="0" type="line"/>
    </contour>
  </outline>
</glyph>
<glyph name="O" format="1">
  <advance width="758"/>
  <unicode hex="004F"/>
  <outline>
    <contour>
      <point x="374" y="-18" type="curve" smooth="yes"/>
      <point x="153" y="-18"/>
      <point x="57" y="105"/>
      <point x="57" y="375" type="curve" smooth="yes"/>
      <point x="57" y="650"/>
      <point x="157" y="759"/>
      <point x="384" y="759" type="curve" smooth="yes"/>
      <point x="606" y="759"/>
      <point x="703" y="634"/>
      <point x="703" y="364" type="curve" smooth="yes"/>
      <point x="703" y="89"/>
      <point x="602" y="-18"/>
    </contour>
    <contour>
      <point x="385" y="681" type="curve" smooth="yes"/>
      <point x="218" y="681"/>
      <point x="148" y="564"/>
      <point x="145" y="415" type="curve" smooth="yes"/>
      <point x="141" y="164"/>
      <point x="215" y="58"/>
      <point x="374" y="58" type="curve" smooth="yes"/>
      <point x="541" y="58"/>
      <point x="612" y="175"/>
      <point x="615" y="324" type="curve" smooth="yes"/>
      <point x="619" y="575"/>
      <point x="544" y="681"/>
    </contour>
  </outline>
</glyph>
<glyph name="P" format="1">
  <advance width="684"/>
  <unicode hex="0050"/>
  <outline>
    <contour>
      <point x="357" y="664" type="curve"/>
      <point x="186" y="663" type="line"/>
      <point x="206" y="702" type="line"/>
      <point x="206" y="53" type="line"/>
      <point x="163" y="82" type="line"/>
      <point x="367" y="82" type="line"/>
      <point x="367" y="0" type="line"/>
      <point x="50" y="0" type="line"/>
      <point x="50" y="60" type="line"/>
      <point x="158" y="89" type="line"/>
      <point x="124" y="61" type="line"/>
      <point x="124" y="694" type="line"/>
      <point x="187" y="658" type="line"/>
      <point x="50" y="658" type="line"/>
      <point x="50" y="740" type="line"/>
      <point x="331" y="740" type="line"/>
      <point x="548" y="740"/>
      <point x="633" y="683"/>
      <point x="633" y="503" type="curve" smooth="yes"/>
      <point x="633" y="313"/>
      <point x="561" y="250"/>
      <point x="312" y="250" type="curve" smooth="yes"/>
      <point x="182" y="250" type="line"/>
      <point x="182" y="327" type="line"/>
      <point x="331" y="327" type="line" smooth="yes"/>
      <point x="507" y="327"/>
      <point x="546" y="381"/>
      <point x="546" y="503" type="curve" smooth="yes"/>
      <point x="546" y="624"/>
      <point x="486" y="664"/>
    </contour>
  </outline>
</glyph>
<glyph name="Q" format="1">
  <advance width="758"/>
  <unicode hex="0051"/>
  <outline>
    <contour>
      <point x="600" y="121" type="line"/>
      <point x="793" y="-70" type="line"/>
      <point x="750" y="-111" type="line"/>
      <point x="478" y="62" type="line"/>
    </contour>
    <component base="O" xOffset="9" yOffset="3"/>
  </outline>
</glyph>
<glyph name="T" format="1">
  <advance width="756"/>
  <unicode hex="0054"/>
  <outline>
    <contour>
      <point x="664" y="659" type="line"/>
      <point x="627" y="689" type="line"/>
      <point x="643" y="445" type="line"/>
      <point x="706" y="445" type="line"/>
      <point x="719" y="740" type="line"/>
      <point x="38" y="740" type="line"/>
      <point x="51" y="445" type="line"/>
      <point x="114" y="445" type="line"/>
      <point x="130" y="689" type="line"/>
      <point x="93" y="659" type="line"/>
    </contour>
    <contour>
      <point x="332" y="692" type="line"/>
      <point x="332" y="48" type="line"/>
      <point x="362" y="92" type="line"/>
      <point x="187" y="57" type="line"/>
      <point x="187" y="1" type="line"/>
      <point x="569" y="1" type="line"/>
      <point x="569" y="57" type="line"/>
      <point x="388" y="92" type="line"/>
      <point x="417" y="48" type="line"/>
      <point x="417" y="692" type="line"/>
    </contour>
  </outline>
</glyph>
<glyph name="U" format="1">
  <advance width="816"/>
  <unicode hex="0055"/>
  <outline>
    <contour>
      <point x="618" y="74" type="line"/>
      <point x="633" y="134" type="line"/>
      <point x="608" y="148" type="line"/>
      <point x="556" y="92"/>
      <point x="462" y="71"/>
      <point x="375" y="71" type="curve"/>
      <point x="242" y="71"/>
      <point x="181" y="111"/>
      <point x="181" y="219" type="curve"/>
      <point x="181" y="687" type="line"/>
      <point x="152" y="649" type="line"/>
      <point x="264" y="680" type="line"/>
      <point x="264" y="740" type="line"/>
      <point x="23" y="740" type="line"/>
      <point x="23" y="658" type="line"/>
      <point x="127" y="658" type="line"/>
      <point x="97" y="688" type="line"/>
      <point x="97" y="229" type="line"/>
      <point x="97" y="86"/>
      <point x="178" y="-18"/>
      <point x="329" y="-18" type="curve" smooth="yes"/>
      <point x="482" y="-18"/>
      <point x="537" y="6"/>
      <point x="558" y="74" type="curve"/>
    </contour>
    <contour>
      <point x="737" y="82" type="line"/>
      <point x="628" y="82" type="line"/>
      <point x="658" y="52" type="line"/>
      <point x="656" y="690" type="line"/>
      <point x="633" y="652" type="line"/>
      <point x="737" y="680" type="line"/>
      <point x="737" y="740" type="line"/>
      <point x="490" y="740" type="line"/>
      <point x="490" y="658" type="line"/>
      <point x="603" y="658" type="line"/>
      <point x="573" y="688" type="line"/>
      <point x="573" y="0" type="line"/>
      <point x="737" y="0" type="line"/>
    </contour>
  </outline>
</glyph>
<glyph name="a" format="1">
  <advance width="579"/>
  <unicode hex="0061"/>
  <outline>
    <contour>
      <point x="107" y="163" type="curve" smooth="yes"/>
      <point x="107" y="246"/>
      <point x="154" y="270"/>
      <point x="246" y="270" type="curve" smooth="yes"/>
      <point x="334" y="270"/>
      <point x="396" y="198"/>
      <point x="396" y="198" type="curve"/>
      <point x="417" y="229" type="line"/>
      <point x="358" y="313"/>
      <point x="302" y="329"/>
      <point x="232" y="329" type="curve" smooth="yes"/>
      <point x="101" y="329"/>
      <point x="34" y="277"/>
      <point x="34" y="154" type="curve" smooth="yes"/>
      <point x="34" y="39"/>
      <point x="99" y="-18"/>
      <point x="209" y="-18" type="curve" smooth="yes"/>
      <point x="307" y="-18"/>
      <point x="364" y="23"/>
      <point x="364" y="98" type="curve"/>
      <point x="344" y="63" type="line"/>
      <point x="431" y="63" type="line"/>
      <point x="416" y="162" type="line"/>
      <point x="391" y="123"/>
      <point x="312" y="45"/>
      <point x="235" y="45" type="curve" smooth="yes"/>
      <point x="155" y="45"/>
      <point x="107" y="85"/>
    </contour>
    <contour>
      <point x="518" y="60" type="line"/>
      <point x="419" y="111" type="line"/>
      <point x="458" y="58" type="line"/>
      <point x="458" y="333" type="line" smooth="yes"/>
      <point x="458" y="488"/>
      <point x="417" y="558"/>
      <point x="285" y="558" type="curve" smooth="yes"/>
      <point x="242" y="558"/>
      <point x="169" y="551"/>
      <point x="63" y="516" type="curve"/>
      <point x="83" y="455" type="line"/>
      <point x="131" y="471"/>
      <point x="200" y="491"/>
      <point x="257" y="491" type="curve" smooth="yes"/>
      <point x="362" y="491"/>
      <point x="385" y="421"/>
      <point x="385" y="305" type="curve" smooth="yes"/>
      <point x="384" y="0" type="line"/>
      <point x="518" y="0" type="line"/>
    </contour>
  </outline>
</glyph>
<glyph name="b" format="1">
  <advance width="620"/>
  <unicode hex="0062"/>
  <outline>
    <contour>
      <point x="119" y="0" type="line"/>
      <point x="119" y="678" type="line"/>
      <point x="171" y="663" type="line"/>
      <point x="42" y="663" type="line"/>
      <point x="42" y="760" type="line"/>
      <point x="196" y="760" type="line"/>
      <point x="196" y="94" type="line"/>
      <point x="183" y="87" type="line"/>
      <point x="161" y="0" type="line"/>
    </contour>
    <contour>
      <point x="499" y="276" type="curve"/>
      <point x="499" y="406"/>
      <point x="456" y="470"/>
      <point x="373" y="470" type="curve" smooth="yes"/>
      <point x="276" y="470"/>
      <point x="236" y="436"/>
      <point x="165" y="397" type="curve"/>
      <point x="165" y="456" type="line"/>
      <point x="293" y="477" type="line"/>
      <point x="220" y="435" type="line"/>
      <point x="220" y="505"/>
      <point x="283" y="554"/>
      <point x="389" y="554" type="curve" smooth="yes"/>
      <point x="493" y="554"/>
      <point x="579" y="513"/>
      <point x="579" y="265" type="curve" smooth="yes"/>
      <point x="579" y="44"/>
      <point x="483" y="-11"/>
      <point x="356" y="-11" type="curve" smooth="yes"/>
      <point x="245" y="-11"/>
      <point x="157" y="70"/>
      <point x="146" y="142" type="curve"/>
      <point x="172" y="165" type="line"/>
      <point x="205" y="103"/>
      <point x="252" y="54"/>
      <point x="349" y="54" type="curve" smooth="yes"/>
      <point x="439" y="54"/>
      <point x="499" y="116"/>
    </contour>
  </outline>
</glyph>
<glyph name="c" format="1">
  <advance width="556"/>
  <unicode hex="0063"/>
  <outline>
    <contour>
      <point x="511" y="62" type="curve"/>
      <point x="477" y="118" type="line"/>
      <point x="439" y="89"/>
      <point x="379" y="49"/>
      <point x="293" y="49" type="curve" smooth="yes"/>
      <point x="175" y="49"/>
      <point x="134" y="150"/>
      <point x="134" y="284" type="curve" smooth="yes"/>
      <point x="134" y="425"/>
      <point x="189" y="493"/>
      <point x="296" y="493" type="curve" smooth="yes"/>
      <point x="380" y="493"/>
      <point x="403" y="469"/>
      <point x="417" y="451" type="curve" smooth="yes"/>
      <point x="432" y="432"/>
      <point x="436" y="376"/>
      <point x="433" y="331" type="curve"/>
      <point x="497" y="331" type="line"/>
      <point x="509" y="526"/>
      <point x="448" y="555"/>
      <point x="288" y="555" type="curve" smooth="yes"/>
      <point x="137" y="555"/>
      <point x="47" y="472"/>
      <point x="47" y="270" type="curve" smooth="yes"/>
      <point x="47" y="66"/>
      <point x="132" y="-11"/>
      <point x="285" y="-11" type="curve" smooth="yes"/>
      <point x="373" y="-11"/>
      <point x="438" y="7"/>
    </contour>
  </outline>
</glyph>
<glyph name="d" format="1">
  <advance width="647"/>
  <unicode hex="0064"/>
  <outline>
    <contour>
      <point x="304" y="760" type="line"/>
      <point x="497" y="760" type="line"/>
      <point x="497" y="60" type="line"/>
      <point x="442" y="90" type="line"/>
      <point x="554" y="60" type="line"/>
      <point x="554" y="0" type="line"/>
      <point x="421" y="0" type="line"/>
      <point x="421" y="699" type="line"/>
      <point x="449" y="660" type="line"/>
      <point x="304" y="699" type="line"/>
    </contour>
    <contour>
      <point x="247" y="-10" type="curve" smooth="yes"/>
      <point x="144" y="-10"/>
      <point x="46" y="28"/>
      <point x="46" y="284" type="curve"/>
      <point x="46" y="506"/>
      <point x="148" y="555"/>
      <point x="269" y="555" type="curve" smooth="yes"/>
      <point x="380" y="555"/>
      <point x="462" y="471"/>
      <point x="473" y="399" type="curve"/>
      <point x="437" y="385" type="line"/>
      <point x="423" y="438"/>
      <point x="365" y="486"/>
      <point x="270" y="486" type="curve" smooth="yes"/>
      <point x="185" y="486"/>
      <point x="127" y="417"/>
      <point x="127" y="310" type="curve" smooth="yes"/>
      <point x="127" y="136"/>
      <point x="157" y="68"/>
      <point x="266" y="68" type="curve" smooth="yes"/>
      <point x="368" y="68"/>
      <point x="444" y="142"/>
      <point x="472" y="181" type="curve"/>
      <point x="455" y="56" type="line"/>
      <point x="364" y="56" type="line"/>
      <point x="431" y="121" type="line"/>
      <point x="431" y="31"/>
      <point x="353" y="-10"/>
    </contour>
  </outline>
</glyph>
<glyph name="e" format="1">
  <advance width="556"/>
  <unicode hex="0065"/>
  <outline>
    <contour>
      <point x="428" y="299" type="curve"/>
      <point x="463" y="303" type="line"/>
      <point x="258" y="303" type="line" smooth="yes"/>
      <point x="169" y="303"/>
      <point x="151" y="304"/>
      <point x="151" y="263" type="curve"/>
      <point x="95" y="263" type="line"/>
      <point x="95" y="238" type="line"/>
      <point x="501" y="238" type="line"/>
      <point x="507" y="381"/>
      <point x="496" y="462"/>
      <point x="449" y="508" type="curve" smooth="yes"/>
      <point x="412" y="543"/>
      <point x="366" y="554"/>
      <point x="282" y="554" type="curve" smooth="yes"/>
      <point x="129" y="554"/>
      <point x="49" y="470"/>
      <point x="49" y="270" type="curve" smooth="yes"/>
      <point x="49" y="69"/>
      <point x="124" y="-11"/>
      <point x="284" y="-11" type="curve" smooth="yes"/>
      <point x="370" y="-11"/>
      <point x="430" y="7"/>
      <point x="501" y="61" type="curve"/>
      <point x="467" y="124" type="line"/>
      <point x="431" y="96"/>
      <point x="377" y="62"/>
      <point x="291" y="62" type="curve" smooth="yes"/>
      <point x="185" y="62"/>
      <point x="132" y="139"/>
      <point x="132" y="265" type="curve" smooth="yes"/>
      <point x="132" y="440"/>
      <point x="192" y="485"/>
      <point x="296" y="485" type="curve" smooth="yes"/>
      <point x="406" y="485"/>
      <point x="434" y="419"/>
    </contour>
  </outline>
</glyph>
<glyph name="h" format="1">
  <advance width="649"/>
  <unicode hex="0068"/>
  <outline>
    <contour>
      <point x="594" y="60" type="line"/>
      <point x="489" y="111" type="line"/>
      <point x="540" y="57" type="line"/>
      <point x="540" y="369" type="line" smooth="yes"/>
      <point x="540" y="509"/>
      <point x="487" y="555"/>
      <point x="376" y="555" type="curve" smooth="yes"/>
      <point x="279" y="555"/>
      <point x="218" y="522"/>
      <point x="212" y="440" type="curve"/>
      <point x="261" y="473" type="line"/>
      <point x="176" y="473" type="line"/>
      <point x="176" y="386" type="line"/>
      <point x="203" y="439"/>
      <point x="292" y="461"/>
      <point x="348" y="461" type="curve" smooth="yes"/>
      <point x="426" y="461"/>
      <point x="467" y="434"/>
      <point x="467" y="397" type="curve" smooth="yes"/>
      <point x="467" y="57" type="line"/>
      <point x="495" y="99" type="line"/>
      <point x="410" y="60" type="line"/>
      <point x="410" y="-1" type="line"/>
      <point x="594" y="-1" type="line"/>
    </contour>
    <contour>
      <point x="251" y="-1" type="line"/>
      <point x="251" y="60" type="line"/>
      <point x="166" y="102" type="line"/>
      <point x="194" y="60" type="line"/>
      <point x="194" y="759" type="line"/>
      <point x="61" y="760" type="line"/>
      <point x="61" y="668" type="line"/>
      <point x="173" y="668" type="line"/>
      <point x="121" y="697" type="line"/>
      <point x="121" y="67" type="line"/>
      <point x="136" y="93" type="line"/>
      <point x="61" y="60" type="line"/>
      <point x="61" y="-1" type="line"/>
    </contour>
  </outline>
</glyph>
<glyph name="i" format="1">
  <advance width="341"/>
  <unicode hex="0069"/>
  <outline>
    <contour>
      <point x="310" y="-1" type="line"/>
      <point x="310" y="60" type="line"/>
      <point x="206" y="95" type="line"/>
      <point x="234" y="60" type="line"/>
      <point x="234" y="539" type="line"/>
      <point x="86" y="539" type="line"/>
      <point x="86" y="447" type="line"/>
      <point x="213" y="447" type="line"/>
      <point x="161" y="476" type="line"/>
      <point x="161" y="67" type="line"/>
      <point x="176" y="86" type="line"/>
      <point x="83" y="60" type="line"/>
      <point x="83" y="-1" type="line"/>
    </contour>
    <contour>
      <point x="170" y="655" type="curve"/>
      <point x="211" y="654"/>
      <point x="240" y="679"/>
      <point x="240" y="728" type="curve" smooth="yes"/>
      <point x="240" y="780"/>
      <point x="211" y="802"/>
      <point x="170" y="802" type="curve"/>
      <point x="127" y="802"/>
      <point x="107" y="778"/>
      <point x="107" y="729" type="curve" smooth="yes"/>
      <point x="107" y="677"/>
      <point x="127" y="655"/>
    </contour>
  </outline>
</glyph>
<glyph name="l" format="1">
  <advance width="331"/>
  <unicode hex="006C"/>
  <outline>
    <contour>
      <point x="305" y="-1" type="line"/>
      <point x="305" y="60" type="line"/>
      <point x="201" y="95" type="line"/>
      <point x="229" y="60" type="line"/>
      <point x="229" y="760" type="line"/>
      <point x="81" y="760" type="line"/>
      <point x="81" y="663" type="line"/>
      <point x="208" y="663" type="line"/>
      <point x="156" y="697" type="line"/>
      <point x="156" y="67" type="line"/>
      <point x="171" y="86" type="line"/>
      <point x="78" y="60" type="line"/>
      <point x="78" y="-1" type="line"/>
    </contour>
  </outline>
</glyph>
<glyph name="m" format="1">
  <advance width="948"/>
  <unicode hex="006D"/>
  <outline>
    <contour>
      <point x="597" y="60" type="line"/>
      <point x="494" y="111" type="line"/>
      <point x="543" y="57" type="line"/>
      <point x="543" y="359" type="line"/>
      <point x="543" y="517"/>
      <point x="499" y="555"/>
      <point x="398" y="555" type="curve" smooth="yes"/>
      <point x="303" y="555"/>
      <point x="248" y="525"/>
      <point x="242" y="444" type="curve"/>
      <point x="258" y="480" type="line"/>
      <point x="196" y="480" type="line"/>
      <point x="196" y="390" type="line"/>
      <point x="223" y="443"/>
      <point x="301" y="462"/>
      <point x="357" y="462" type="curve" smooth="yes"/>
      <point x="435" y="462"/>
      <point x="470" y="435"/>
      <point x="470" y="391" type="curve" smooth="yes"/>
      <point x="470" y="57" type="line"/>
      <point x="498" y="99" type="line"/>
      <point x="413" y="60" type="line"/>
      <point x="413" y="-1" type="line"/>
      <point x="597" y="-1" type="line"/>
    </contour>
    <contour>
      <point x="282" y="-1" type="line"/>
      <point x="282" y="60" type="line"/>
      <point x="197" y="102" type="line"/>
      <point x="225" y="60" type="line"/>
      <point x="225" y="539" type="line"/>
      <point x="92" y="539" type="line"/>
      <point x="92" y="447" type="line"/>
      <point x="204" y="447" type="line"/>
      <point x="152" y="476" type="line"/>
      <point x="152" y="67" type="line"/>
      <point x="167" y="93" type="line"/>
      <point x="92" y="60" type="line"/>
      <point x="92" y="-1" type="line"/>
    </contour>
    <contour>
      <point x="916" y="60" type="line"/>
      <point x="816" y="109" type="line"/>
      <point x="862" y="57" type="line"/>
      <point x="862" y="359" type="line"/>
      <point x="862" y="507"/>
      <point x="813" y="555"/>
      <point x="709" y="555" type="curve" smooth="yes"/>
      <point x="613" y="555"/>
      <point x="561" y="525"/>
      <point x="555" y="444" type="curve"/>
      <point x="576" y="480" type="line"/>
      <point x="506" y="480" type="line"/>
      <point x="504" y="376" type="line"/>
      <point x="531" y="429"/>
      <point x="616" y="462"/>
      <point x="672" y="462" type="curve" smooth="yes"/>
      <point x="750" y="462"/>
      <point x="789" y="435"/>
      <point x="789" y="391" type="curve" smooth="yes"/>
      <point x="789" y="57" type="line"/>
      <point x="817" y="99" type="line"/>
      <point x="732" y="60" type="line"/>
      <point x="732" y="-1" type="line"/>
      <point x="916" y="-1" type="line"/>
    </contour>
  </outline>
</glyph>
<glyph name="n" format="1">
  <advance width="649"/>
  <unicode hex="006E"/>
  <outline>
    <contour>
      <point x="620" y="60" type="line"/>
      <point x="508" y="115" type="line"/>
      <point x="566" y="57" type="line"/>
      <point x="566" y="369" type="line"/>
      <point x="566" y="509"/>
      <point x="513" y="555"/>
      <point x="402" y="555" type="curve" smooth="yes"/>
      <point x="305" y="555"/>
      <point x="245" y="519"/>
      <point x="239" y="437" type="curve"/>
      <point x="274" y="473" type="line"/>
      <point x="204" y="473" type="line"/>
      <point x="204" y="386" type="line"/>
      <point x="231" y="439"/>
      <point x="311" y="462"/>
      <point x="367" y="462" type="curve" smooth="yes"/>
      <point x="445" y="462"/>
      <point x="486" y="438"/>
      <point x="486" y="397" type="curve" smooth="yes"/>
      <point x="486" y="57" type="line"/>
      <point x="514" y="99" type="line"/>
      <point x="429" y="60" type="line"/>
      <point x="429" y="-1" type="line"/>
      <point x="620" y="-1" type="line"/>
    </contour>
    <contour>
      <point x="278" y="-1" type="line"/>
      <point x="278" y="60" type="line"/>
      <point x="193" y="102" type="line"/>
      <point x="221" y="60" type="line"/>
      <point x="221" y="539" type="line"/>
      <point x="81" y="539" type="line"/>
      <point x="81" y="447" type="line"/>
      <point x="193" y="447" type="line"/>
      <point x="141" y="476" type="line"/>
      <point x="141" y="67" type="line"/>
      <point x="156" y="93" type="line"/>
      <point x="81" y="60" type="line"/>
      <point x="81" y="-1" type="line"/>
    </contour>
  </outline>
</glyph>
<glyph name="o" format="1">
  <advance width="596"/>
  <unicode hex="006F"/>
  <outline>
    <contour>
      <point x="298" y="-18" type="curve"/>
      <point x="469" y="-18"/>
      <point x="546" y="60"/>
      <point x="546" y="268" type="curve" smooth="yes"/>
      <point x="546" y="485"/>
      <point x="466" y="558"/>
      <point x="298" y="558" type="curve" smooth="yes"/>
      <point x="128" y="558"/>
      <point x="50" y="481"/>
      <point x="50" y="273" type="curve" smooth="yes"/>
      <point x="50" y="56"/>
      <point x="130" y="-18"/>
    </contour>
    <contour>
      <point x="140" y="304" type="curve" smooth="yes"/>
      <point x="140" y="410"/>
      <point x="173" y="483"/>
      <point x="305" y="483" type="curve" smooth="yes"/>
      <point x="435" y="483"/>
      <point x="456" y="422"/>
      <point x="456" y="236" type="curve" smooth="yes"/>
      <point x="456" y="134"/>
      <point x="430" y="57"/>
      <point x="291" y="57" type="curve" smooth="yes"/>
      <point x="162" y="57"/>
      <point x="140" y="118"/>
    </contour>
  </outline>
</glyph>
<glyph name="p" format="1">
  <advance width="647"/>
  <unicode hex="0070"/>
  <outline>
    <contour>
      <point x="374" y="-12" type="curve" smooth="yes"/>
      <point x="270" y="-12"/>
      <point x="196" y="65"/>
      <point x="188" y="128" type="curve"/>
      <point x="193" y="168" type="line"/>
      <point x="226" y="105"/>
      <point x="284" y="56"/>
      <point x="367" y="56" type="curve" smooth="yes"/>
      <point x="464" y="56"/>
      <point x="520" y="123"/>
      <point x="520" y="280" type="curve" smooth="yes"/>
      <point x="520" y="415"/>
      <point x="476" y="470"/>
      <point x="386" y="470" type="curve" smooth="yes"/>
      <point x="322" y="470"/>
      <point x="256" y="442"/>
      <point x="186" y="395" type="curve"/>
      <point x="210" y="480" type="line"/>
      <point x="281" y="479" type="line"/>
      <point x="242" y="462" type="line"/>
      <point x="242" y="524"/>
      <point x="326" y="555"/>
      <point x="413" y="555" type="curve" smooth="yes"/>
      <point x="531" y="555"/>
      <point x="600" y="479"/>
      <point x="600" y="278" type="curve" smooth="yes"/>
      <point x="600" y="16"/>
      <point x="484" y="-12"/>
    </contour>
    <contour>
      <point x="72" y="-210" type="line"/>
      <point x="72" y="-147" type="line"/>
      <point x="177" y="-127" type="line"/>
      <point x="147" y="-157" type="line"/>
      <point x="147" y="447" type="line"/>
      <point x="87" y="447" type="line"/>
      <point x="87" y="540" type="line"/>
      <point x="224" y="540" type="line"/>
      <point x="224" y="-152" type="line"/>
      <point x="191" y="-115" type="line"/>
      <point x="368" y="-158" type="line"/>
      <point x="368" y="-210" type="line"/>
    </contour>
  </outline>
</glyph>
<glyph name="q" format="1">
  <advance width="620"/>
  <unicode hex="0071"/>
  <outline>
    <contour>
      <point x="246" y="-11" type="curve" smooth="yes"/>
      <point x="143" y="-11"/>
      <point x="44" y="36"/>
      <point x="44" y="284" type="curve"/>
      <point x="44" y="508"/>
      <point x="139" y="554"/>
      <point x="265" y="554" type="curve" smooth="yes"/>
      <point x="376" y="554"/>
      <point x="460" y="465"/>
      <point x="471" y="393" type="curve"/>
      <point x="453" y="378" type="line"/>
      <point x="439" y="429"/>
      <point x="329" y="480"/>
      <point x="267" y="480" type="curve" smooth="yes"/>
      <point x="171" y="480"/>
      <point x="123" y="422"/>
      <point x="123" y="310" type="curve" smooth="yes"/>
      <point x="123" y="135"/>
      <point x="163" y="60"/>
      <point x="271" y="60" type="curve" smooth="yes"/>
      <point x="366" y="60"/>
      <point x="440" y="133"/>
      <point x="473" y="198" type="curve"/>
      <point x="466" y="51" type="line"/>
      <point x="319" y="51" type="line"/>
      <point x="410" y="93" type="line"/>
      <point x="410" y="31"/>
      <point x="352" y="-11"/>
    </contour>
    <contour>
      <point x="278" y="-210" type="line"/>
      <point x="278" y="-158" type="line"/>
      <point x="449" y="-116" type="line"/>
      <point x="421" y="-150" type="line"/>
      <point x="421" y="464" type="line"/>
      <point x="433" y="471" type="line"/>
      <point x="455" y="558" type="line"/>
      <point x="499" y="558" type="line"/>
      <point x="499" y="-152" type="line"/>
      <point x="469" y="-127" type="line"/>
      <point x="574" y="-147" type="line"/>
      <point x="574" y="-210" type="line"/>
    </contour>
  </outline>
</glyph>
<glyph name="r" format="1">
  <advance width="521"/>
  <unicode hex="0072"/>
  <outline>
    <contour>
      <point x="379" y="-1" type="line"/>
      <point x="379" y="61" type="line"/>
      <point x="193" y="93" type="line"/>
      <point x="241" y="60" type="line"/>
      <point x="241" y="539" type="line"/>
      <point x="88" y="539" type="line"/>
      <point x="88" y="447" type="line"/>
      <point x="200" y="447" type="line"/>
      <point x="166" y="476" type="line"/>
      <point x="166" y="67" type="line"/>
      <point x="197" y="88" type="line"/>
      <point x="88" y="60" type="line"/>
      <point x="88" y="-1" type="line"/>
    </contour>
    <contour>
      <point x="481" y="332" type="line"/>
      <point x="506" y="500"/>
      <point x="478" y="554"/>
      <point x="385" y="554" type="curve" smooth="yes"/>
      <point x="312" y="554"/>
      <point x="261" y="519"/>
      <point x="260" y="450" type="curve"/>
      <point x="292" y="473" type="line"/>
      <point x="223" y="473" type="line"/>
      <point x="219" y="398" type="line"/>
      <point x="248" y="437"/>
      <point x="305" y="457"/>
      <point x="348" y="457" type="curve" smooth="yes"/>
      <point x="413" y="457"/>
      <point x="419" y="389"/>
      <point x="425" y="331" type="curve"/>
    </contour>
  </outline>
</glyph>
<glyph name="u" format="1">
  <advance width="646"/>
  <unicode hex="0075"/>
  <outline>
    <contour>
      <point x="8" y="480" type="line"/>
      <point x="130" y="425" type="line"/>
      <point x="72" y="483" type="line"/>
      <point x="72" y="171" type="line"/>
      <point x="72" y="31"/>
      <point x="127" y="-15"/>
      <point x="238" y="-15" type="curve" smooth="yes"/>
      <point x="335" y="-15"/>
      <point x="394" y="18"/>
      <point x="400" y="105" type="curve"/>
      <point x="365" y="69" type="line"/>
      <point x="436" y="49" type="line"/>
      <point x="437" y="153" type="line"/>
      <point x="410" y="100"/>
      <point x="329" y="82"/>
      <point x="273" y="82" type="curve" smooth="yes"/>
      <point x="195" y="82"/>
      <point x="152" y="105"/>
      <point x="152" y="142" type="curve" smooth="yes"/>
      <point x="152" y="541" type="line"/>
      <point x="8" y="541" type="line"/>
    </contour>
    <contour>
      <point x="350" y="541" type="line"/>
      <point x="350" y="480" type="line"/>
      <point x="445" y="436" type="line"/>
      <point x="417" y="480" type="line"/>
      <point x="417" y="1" type="line"/>
      <point x="557" y="1" type="line"/>
      <point x="557" y="60" type="line"/>
      <point x="445" y="103" type="line"/>
      <point x="497" y="64" type="line"/>
      <point x="497" y="541" type="line"/>
    </contour>
  </outline>
</glyph>
<glyph name="Ntilde" format="1">
  <advance width="784"/>
  <unicode hex="00D1"/>
  <outline>
    <contour>
      <point x="240" y="832" type="curve"/>
      <point x="215" y="845" type="line"/>
      <point x="215" y="933"/>
      <point x="215" y="1018"/>
      <point x="334" y="1018" type="curve" smooth="yes"/>
      <point x="391" y="1018"/>
      <point x="422" y="1013"/>
      <point x="453" y="969" type="curve"/>
      <point x="475" y="936"/>
      <point x="484" y="931"/>
      <point x="524" y="931" type="curve" smooth="yes"/>
      <point x="580" y="925"/>
      <point x="593" y="960"/>
      <point x="602" y="991" type="curve"/>
      <point x="614" y="991"/>
      <point x="631" y="997"/>
      <point x="631" y="1015" type="curve"/>
      <point x="656" y="1009" type="line"/>
      <point x="656" y="920"/>
      <point x="655" y="825"/>
      <point x="535" y="825" type="curve" smooth="yes"/>
      <point x="478" y="825"/>
      <point x="451" y="836"/>
      <point x="418" y="882" type="curve"/>
      <point x="395" y="915"/>
      <point x="386" y="920"/>
      <point x="345" y="920" type="curve" smooth="yes"/>
      <point x="291" y="926"/>
      <point x="278" y="887"/>
      <point x="269" y="855" type="curve"/>
      <point x="256" y="855"/>
      <point x="240" y="849"/>
    </contour>
    <component base="N" xOffset="9"/>
  </outline>
</glyph>
<glyph name="ntilde" format="1">
  <advance width="656"/>
  <unicode hex="00F1"/>
  <outline>
    <contour>
      <point x="450" y="631" type="curve" smooth="yes"/>
      <point x="406" y="631"/>
      <point x="388" y="640"/>
      <point x="365" y="673" type="curve"/>
      <point x="352" y="691"/>
      <point x="344" y="699"/>
      <point x="319" y="699" type="curve" smooth="yes"/>
      <point x="282" y="704"/>
      <point x="272" y="679"/>
      <point x="263" y="658" type="curve"/>
      <point x="250" y="658"/>
      <point x="238" y="653"/>
      <point x="238" y="636" type="curve"/>
      <point x="215" y="645" type="line"/>
      <point x="215" y="715"/>
      <point x="217" y="776"/>
      <point x="306" y="776" type="curve" smooth="yes"/>
      <point x="348" y="776"/>
      <point x="370" y="771"/>
      <point x="391" y="739" type="curve"/>
      <point x="404" y="720"/>
      <point x="411" y="713"/>
      <point x="436" y="713" type="curve" smooth="yes"/>
      <point x="474" y="707"/>
      <point x="485" y="730"/>
      <point x="494" y="750" type="curve"/>
      <point x="506" y="750"/>
      <point x="517" y="756"/>
      <point x="517" y="774" type="curve"/>
      <point x="541" y="770" type="line"/>
      <point x="541" y="699"/>
      <point x="538" y="631"/>
    </contour>
    <component base="n" xOffset="30"/>
  </outline>
</glyph>
<glyph name="r.alt" format="1">
  <advance width="547"/>
  <outline>
    <contour>
      <point x="373" y="43" type="line"/>
      <point x="223" y="84" type="line"/>
      <point x="223" y="540" type="line"/>
      <point x="88" y="540" type="line"/>
      <point x="88" y="447" type="line"/>
      <point x="148" y="447" type="line"/>
      <point x="148" y="68" type="line"/>
      <point x="88" y="68" type="line"/>
      <point x="88" y="0" type="line"/>
      <point x="373" y="0" type="line"/>
    </contour>
    <contour>
      <point x="223" y="455" type="line"/>
      <point x="223" y="327" type="line"/>
      <point x="223" y="400"/>
      <point x="265" y="453"/>
      <point x="338" y="453" type="curve"/>
      <point x="401" y="453"/>
      <point x="476" y="416"/>
      <point x="476" y="416" type="curve"/>
      <point x="525" y="485" type="line"/>
      <point x="525" y="485"/>
      <point x="454" y="558"/>
      <point x="354" y="558" type="curve" smooth="yes"/>
      <point x="253" y="558"/>
      <point x="242" y="455"/>
      <point x="242" y="455" type="curve"/>
    </contour>
  </outline>
</glyph>
